<svg xmlns="http://www.w3.org/2000/svg" width="256" height="256" viewBox="0 0 256 256">
  <defs>
    <linearGradient id="flow" x1="0" y1="0" x2="0.9" y2="1">
      <stop offset="0" stop-color="#2dd4bf"/>
      <stop offset="0.55" stop-color="#38bdf8"/>
      <stop offset="1" stop-color="#6366f1"/>
    </linearGradient>
    <filter id="glow" x="-30%" y="-30%" width="160%" height="160%">
      <feGaussianBlur stdDeviation="4" result="b"/>
      <feMerge><feMergeNode in="b"/><feMergeNode in="SourceGraphic"/></feMerge>
    </filter>
  </defs>
  <g filter="url(#glow)">
    <path fill-rule="evenodd" fill="url(#flow)"
      d="M 185.3,104.3 L 188.6,115.1 L 212.9,114.5 L 212.9,141.5 L 188.6,140.9 L 185.3,151.7 L 185.3,151.7 L 180.0,161.8 L 197.6,178.5 L 178.5,197.6 L 161.8,180.0 L 151.7,185.3 L 151.7,185.3 L 140.9,188.6 L 141.5,212.9 L 114.5,212.9 L 115.1,188.6 L 104.3,185.3 L 104.3,185.3 L 94.2,180.0 L 77.5,197.6 L 58.4,178.5 L 76.0,161.8 L 70.7,151.7 L 70.7,151.7 L 67.4,140.9 L 43.1,141.5 L 43.1,114.5 L 67.4,115.1 L 70.7,104.3 L 70.7,104.3 L 76.0,94.2 L 58.4,77.5 L 77.5,58.4 L 94.2,76.0 L 104.3,70.7 L 104.3,70.7 L 115.1,67.4 L 114.5,43.1 L 141.5,43.1 L 140.9,67.4 L 151.7,70.7 L 151.7,70.7 L 161.8,76.0 L 178.5,58.4 L 197.6,77.5 L 180.0,94.2 L 185.3,104.3 Z
         M 152.0,128.0 A 24 24 0 1 0 104.0,128.0 A 24 24 0 1 0 152.0,128.0 Z"/>
  </g>
</svg>
